<svg id="visual" viewBox="0 0 900 450" width="900" height="450" xmlns="http://www.w3.org/2000/svg" xmlns:xlink="http://www.w3.org/1999/xlink" version="1.1"><rect x="0" y="0" width="900" height="450" fill="#931C1C"></rect><path d="M0 363L180 344L360 374L540 361L720 373L900 344L900 451L720 451L540 451L360 451L180 451L0 451Z" fill="#f5730a"></path><path d="M0 390L180 388L360 380L540 392L720 396L900 388L900 451L720 451L540 451L360 451L180 451L0 451Z" fill="#d15308"></path><path d="M0 399L180 395L360 408L540 412L720 415L900 411L900 451L720 451L540 451L360 451L180 451L0 451Z" fill="#ac3505"></path><path d="M0 417L180 423L360 425L540 433L720 428L900 410L900 451L720 451L540 451L360 451L180 451L0 451Z" fill="#871400"></path></svg>